<svg xmlns="http://www.w3.org/2000/svg" width="1200" height="675" viewBox="0 0 1200 675" role="img" aria-label="어린이집 첫주 적응: 하원 후 컨디션 대표 이미지">
  <defs>
    <linearGradient id="bg" x1="0" y1="0" x2="1" y2="1">
      <stop offset="0" stop-color="#fffaf0"/>
      <stop offset="1" stop-color="#f7dfb7"/>
    </linearGradient>
    <filter id="shadow" x="-20%" y="-20%" width="140%" height="140%">
      <feDropShadow dx="0" dy="18" stdDeviation="18" flood-color="#734915" flood-opacity="0.14"/>
    </filter>
  </defs>
  <rect width="1200" height="675" fill="url(#bg)"/>
  <circle cx="938" cy="120" r="180" fill="#ffffff" opacity="0.38"/>
  <circle cx="952" cy="493" r="120" fill="#d08a32" opacity="0.13"/>
  <path d="M0 560C180 500 260 610 420 550C560 498 630 455 805 505C960 550 1030 610 1200 545V675H0Z" fill="#ffffff" opacity="0.46"/>
  <g filter="url(#shadow)">
    
      <rect x="760" y="210" width="285" height="180" rx="24" fill="#ffffff" opacity="0.84"/>
      <rect x="805" y="250" width="120" height="18" rx="9" fill="#d08a32"/>
      <rect x="805" y="292" width="190" height="14" rx="7" fill="#734915" opacity="0.7"/>
      <circle cx="940" cy="390" r="72" fill="#d08a32" opacity="0.26"/>
    
  </g>
  <rect x="72" y="86" width="610" height="500" rx="34" fill="#ffffff" opacity="0.86"/>
  <text x="88" y="145" font-family="Pretendard, Arial, sans-serif" font-size="30" font-weight="700" fill="#d08a32">정부지원</text>
  <text x="88" y="250" font-family="Pretendard, Arial, sans-serif" font-size="56" font-weight="800" fill="#734915" letter-spacing="-1"><tspan x="88" dy="0">어린이집 첫주 적응: 하원 후</tspan><tspan x="88" dy="64">컨디션</tspan></text>
  <rect x="88" y="475" width="330" height="58" rx="29" fill="#f7dfb7"/>
  <text x="116" y="512" font-family="Pretendard, Arial, sans-serif" font-size="26" font-weight="700" fill="#734915">어린이집 첫주 적응</text>
</svg>
