<svg xmlns="http://www.w3.org/2000/svg" width="1200" height="675" viewBox="0 0 1200 675" role="img" aria-label="임신 앱 정보 신뢰도 확인: 병원 안내 대표 이미지">
  <defs>
    <linearGradient id="bg" x1="0" y1="0" x2="1" y2="1">
      <stop offset="0" stop-color="#fff8f5"/>
      <stop offset="1" stop-color="#f2d1c4"/>
    </linearGradient>
    <filter id="shadow" x="-20%" y="-20%" width="140%" height="140%">
      <feDropShadow dx="0" dy="18" stdDeviation="18" flood-color="#713722" flood-opacity="0.14"/>
    </filter>
  </defs>
  <rect width="1200" height="675" fill="url(#bg)"/>
  <circle cx="976" cy="122" r="180" fill="#ffffff" opacity="0.38"/>
  <circle cx="1004" cy="491" r="120" fill="#c66a4a" opacity="0.13"/>
  <path d="M0 560C180 500 260 610 420 550C560 498 630 455 805 505C960 550 1030 610 1200 545V675H0Z" fill="#ffffff" opacity="0.46"/>
  <g filter="url(#shadow)">
    
    <rect x="770" y="195" width="255" height="280" rx="36" fill="#ffffff" opacity="0.8"/>
    <path d="M830 275h135M830 335h105M830 395h150" stroke="#713722" stroke-width="16" stroke-linecap="round"/>
    <circle cx="970" cy="230" r="58" fill="#c66a4a" opacity="0.26"/>
  
  </g>
  <rect x="72" y="86" width="610" height="500" rx="34" fill="#ffffff" opacity="0.86"/>
  <text x="88" y="145" font-family="Pretendard, Arial, sans-serif" font-size="30" font-weight="700" fill="#c66a4a">FAQ</text>
  <text x="88" y="250" font-family="Pretendard, Arial, sans-serif" font-size="56" font-weight="800" fill="#713722" letter-spacing="-1"><tspan x="88" dy="0">임신 앱 정보 신뢰도 확인:</tspan><tspan x="88" dy="64">병원 안내</tspan></text>
  <rect x="88" y="475" width="276" height="58" rx="29" fill="#f2d1c4"/>
  <text x="116" y="512" font-family="Pretendard, Arial, sans-serif" font-size="26" font-weight="700" fill="#713722">임신 앱 정보</text>
</svg>
