<svg xmlns="http://www.w3.org/2000/svg" width="1200" height="675" viewBox="0 0 1200 675" role="img" aria-label="임신성 당뇨검사 임신 23주 당뇨검사 준비: 임신 24주 당뇨검사 대표 이미지">
  <defs>
    <linearGradient id="bg" x1="0" y1="0" x2="1" y2="1">
      <stop offset="0" stop-color="#f7f9ff"/>
      <stop offset="1" stop-color="#d8e1ff"/>
    </linearGradient>
    <filter id="shadow" x="-20%" y="-20%" width="140%" height="140%">
      <feDropShadow dx="0" dy="18" stdDeviation="18" flood-color="#273a78" flood-opacity="0.14"/>
    </filter>
  </defs>
  <rect width="1200" height="675" fill="url(#bg)"/>
  <circle cx="918" cy="120" r="180" fill="#ffffff" opacity="0.38"/>
  <circle cx="972" cy="513" r="120" fill="#5577c8" opacity="0.13"/>
  <path d="M0 560C180 500 260 610 420 550C560 498 630 455 805 505C960 550 1030 610 1200 545V675H0Z" fill="#ffffff" opacity="0.46"/>
  <g filter="url(#shadow)">
    
      <rect x="780" y="165" width="230" height="300" rx="28" fill="#ffffff" opacity="0.82"/>
      <path d="M825 235h130M825 305h130M825 375h92" stroke="#273a78" stroke-width="16" stroke-linecap="round"/>
      <circle cx="790" cy="235" r="16" fill="#5577c8"/><circle cx="790" cy="305" r="16" fill="#5577c8"/><circle cx="790" cy="375" r="16" fill="#5577c8"/>
    
  </g>
  <rect x="72" y="86" width="610" height="500" rx="34" fill="#ffffff" opacity="0.86"/>
  <text x="88" y="145" font-family="Pretendard, Arial, sans-serif" font-size="30" font-weight="700" fill="#5577c8">산전검사</text>
  <text x="88" y="250" font-family="Pretendard, Arial, sans-serif" font-size="56" font-weight="800" fill="#273a78" letter-spacing="-1"><tspan x="88" dy="0">임신성 당뇨검사 임신 23주</tspan><tspan x="88" dy="64">당뇨검사 준비: 임신 24주</tspan><tspan x="88" dy="64">당뇨검사</tspan></text>
  <rect x="88" y="475" width="294" height="58" rx="29" fill="#d8e1ff"/>
  <text x="116" y="512" font-family="Pretendard, Arial, sans-serif" font-size="26" font-weight="700" fill="#273a78">임신성 당뇨검사</text>
</svg>
