<svg xmlns="http://www.w3.org/2000/svg" width="1200" height="675" viewBox="0 0 1200 675" role="img" aria-label="산후 2주 오로 변화 기록: 회복 진료 대표 이미지">
  <defs>
    <linearGradient id="bg" x1="0" y1="0" x2="1" y2="1">
      <stop offset="0" stop-color="#f6fbf8"/>
      <stop offset="1" stop-color="#ccebdc"/>
    </linearGradient>
    <filter id="shadow" x="-20%" y="-20%" width="140%" height="140%">
      <feDropShadow dx="0" dy="18" stdDeviation="18" flood-color="#245841" flood-opacity="0.14"/>
    </filter>
  </defs>
  <rect width="1200" height="675" fill="url(#bg)"/>
  <circle cx="949" cy="179" r="180" fill="#ffffff" opacity="0.38"/>
  <circle cx="971" cy="544" r="120" fill="#4f9f78" opacity="0.13"/>
  <path d="M0 560C180 500 260 610 420 550C560 498 630 455 805 505C960 550 1030 610 1200 545V675H0Z" fill="#ffffff" opacity="0.46"/>
  <g filter="url(#shadow)">
    
      <circle cx="895" cy="315" r="135" fill="#ffffff" opacity="0.78"/>
      <path d="M805 340c55-96 143-98 202-12" fill="none" stroke="#245841" stroke-width="18" stroke-linecap="round"/>
      <path d="M845 405c35 30 98 32 137-4" fill="none" stroke="#4f9f78" stroke-width="18" stroke-linecap="round"/>
    
  </g>
  <rect x="72" y="86" width="610" height="500" rx="34" fill="#ffffff" opacity="0.86"/>
  <text x="88" y="145" font-family="Pretendard, Arial, sans-serif" font-size="30" font-weight="700" fill="#4f9f78">생활관리</text>
  <text x="88" y="250" font-family="Pretendard, Arial, sans-serif" font-size="56" font-weight="800" fill="#245841" letter-spacing="-1"><tspan x="88" dy="0">산후 2주 오로 변화 기록:</tspan><tspan x="88" dy="64">회복 진료</tspan></text>
  <rect x="88" y="475" width="348" height="58" rx="29" fill="#ccebdc"/>
  <text x="116" y="512" font-family="Pretendard, Arial, sans-serif" font-size="26" font-weight="700" fill="#245841">산후 2주 오로 변화</text>
</svg>
